<svg width="49" height="15" viewBox="0 0 49 15" fill="none" xmlns="http://www.w3.org/2000/svg">
<path d="M0 7.5C0 3.35786 3.35786 0 7.5 0H41.5C45.6421 0 49 3.35786 49 7.5V7.5C49 11.6421 45.6421 15 41.5 15H7.5C3.35786 15 0 11.6421 0 7.5V7.5Z" fill="#FF0303"/>
<path d="M7.27202 11L7.87287 9.26776H10.4297L11.0273 11H12.0756L9.72017 4.45455H8.57919L6.22372 11H7.27202ZM8.16051 8.43679L9.12571 5.64347H9.17685L10.142 8.43679H8.16051ZM18.5997 6.5831C18.376 5.18324 17.2797 4.36506 15.8958 4.36506C14.202 4.36506 12.9523 5.63388 12.9523 7.72727C12.9523 9.82067 14.1956 11.0895 15.8958 11.0895C17.3341 11.0895 18.3855 10.1882 18.5997 8.89382L17.6025 8.89062C17.4331 9.72798 16.73 10.1882 15.9022 10.1882C14.7804 10.1882 13.9335 9.32848 13.9335 7.72727C13.9335 6.13885 14.7772 5.26634 15.9054 5.26634C16.7396 5.26634 17.4395 5.73615 17.6025 6.5831H18.5997ZM25.6678 6.5831C25.4441 5.18324 24.3479 4.36506 22.964 4.36506C21.2701 4.36506 20.0205 5.63388 20.0205 7.72727C20.0205 9.82067 21.2637 11.0895 22.964 11.0895C24.4022 11.0895 25.4537 10.1882 25.6678 8.89382L24.6707 8.89062C24.5013 9.72798 23.7982 10.1882 22.9704 10.1882C21.8486 10.1882 21.0017 9.32848 21.0017 7.72727C21.0017 6.13885 21.8454 5.26634 22.9736 5.26634C23.8078 5.26634 24.5077 5.73615 24.6707 6.5831H25.6678ZM27.2996 11H31.4416V10.1499H28.2871V8.14595H31.1891V7.29901H28.2871V5.30469H31.4033V4.45455H27.2996V11ZM33.1724 11H34.16V8.69886H35.5023C37.0204 8.69886 37.7715 7.78161 37.7715 6.57351C37.7715 5.36861 37.0268 4.45455 35.5055 4.45455H33.1724V11ZM34.16 7.86151V5.30149H35.4001C36.378 5.30149 36.7775 5.83203 36.7775 6.57351C36.7775 7.31499 36.378 7.86151 35.4128 7.86151H34.16ZM39.0565 5.30469H41.0955V11H42.0799V5.30469H44.1222V4.45455H39.0565V5.30469Z" fill="white"/>
</svg>
