
<svg width="51" height="20" viewBox="0 0 51 20" fill="none" xmlns="http://www.w3.org/2000/svg">
<rect x="1" width="49" height="20" rx="10" fill="#0A65FF"/>
<path d="M7.41335 14L8.08097 12.0753H10.9219L11.5859 14H12.7507L10.1335 6.72727H8.86577L6.24858 14H7.41335ZM8.40057 11.152L9.47301 8.0483H9.52983L10.6023 11.152H8.40057ZM19.9996 9.09233C19.7511 7.53693 18.533 6.62784 16.9954 6.62784C15.1133 6.62784 13.7248 8.03764 13.7248 10.3636C13.7248 12.6896 15.1062 14.0994 16.9954 14.0994C18.5934 14.0994 19.7617 13.098 19.9996 11.6598L18.8917 11.6562C18.7035 12.5866 17.9222 13.098 17.0025 13.098C15.756 13.098 14.815 12.1428 14.815 10.3636C14.815 8.59872 15.7525 7.62926 17.006 7.62926C17.9329 7.62926 18.7106 8.15128 18.8917 9.09233H19.9996ZM21.454 7.67188H23.7196V14H24.8134V7.67188H27.0826V6.72727H21.454V7.67188ZM29.9237 6.72727H28.8263V14H29.9237V6.72727ZM32.6573 6.72727H31.4712L34.0884 14H35.3562L37.9734 6.72727H36.7873L34.7631 12.6506H34.6815L32.6573 6.72727ZM39.5236 14H44.1259V13.0554H40.6209V10.8288H43.8453V9.88778H40.6209V7.67188H44.0833V6.72727H39.5236V14Z" fill="white"/>
</svg>
