
<svg width="40" height="40" viewBox="0 0 40 40" fill="none" xmlns="http://www.w3.org/2000/svg">
<path d="M17.4998 28.5837L24.1332 24.7837C25.2498 24.1503 25.2498 22.5337 24.1332 21.8837L17.4998 18.0837C16.3832 17.4503 14.9998 18.267 14.9998 19.5337V27.117C14.9998 28.4003 16.3832 29.217 17.4998 28.5837ZM34.9998 10.0003H22.3498L27.2498 5.10033C27.5832 4.76699 27.5832 4.25033 27.2498 3.91699C26.9165 3.58366 26.3998 3.58366 26.0665 3.91699L19.9998 9.98366L13.9332 3.91699C13.5998 3.58366 13.0832 3.58366 12.7498 3.91699C12.4165 4.25033 12.4165 4.76699 12.7498 5.10033L17.6498 10.0003H4.99984C3.1665 10.0003 1.6665 11.4837 1.6665 13.3337V33.3337C1.6665 35.167 3.1665 36.667 4.99984 36.667H34.9998C36.8332 36.667 38.3332 35.167 38.3332 33.3337V13.3337C38.3332 11.4837 36.8332 10.0003 34.9998 10.0003ZM33.3332 33.3337H6.6665C5.74984 33.3337 4.99984 32.5837 4.99984 31.667V15.0003C4.99984 14.0837 5.74984 13.3337 6.6665 13.3337H33.3332C34.2498 13.3337 34.9998 14.0837 34.9998 15.0003V31.667C34.9998 32.5837 34.2498 33.3337 33.3332 33.3337Z" fill="#36A3EB"/>
</svg>
