
<svg width="49" height="15" viewBox="0 0 49 15" fill="none" xmlns="http://www.w3.org/2000/svg">
<rect width="49" height="15" rx="7.5" fill="#FF0A0A"/>
<path d="M9.79901 11H12.5866C14.277 11 15.0405 10.1584 15.0405 9.04332C15.0405 7.91761 14.2521 7.28196 13.5312 7.2429V7.17188C14.1989 7.00142 14.7564 6.54688 14.7564 5.63778C14.7564 4.56179 14.0107 3.72727 12.4624 3.72727H9.79901V11ZM10.8963 10.0589V7.7294H12.5192C13.3999 7.7294 13.9503 8.29759 13.9503 8.99006C13.9503 9.60085 13.5348 10.0589 12.4801 10.0589H10.8963ZM10.8963 6.87358V4.66122H12.3949C13.2649 4.66122 13.6804 5.11932 13.6804 5.72301C13.6804 6.42614 13.1051 6.87358 12.3665 6.87358H10.8963ZM16.842 11H21.2347V10.0554H17.9393V3.72727H16.842V11ZM24.0838 3.72727H22.9865V11H24.0838V3.72727ZM32.0518 3.72727H30.9652V9.06818H30.8977L27.1974 3.72727H26.1818V11H27.2791V5.66619H27.3466L31.0433 11H32.0518V3.72727ZM36.5069 11C38.7228 11 40.0048 9.62571 40.0048 7.35298C40.0048 5.09091 38.7228 3.72727 36.5815 3.72727H34.1525V11H36.5069ZM35.2498 10.0412V4.68608H36.514C38.1049 4.68608 38.9252 5.63778 38.9252 7.35298C38.9252 9.07528 38.1049 10.0412 36.4466 10.0412H35.2498Z" fill="white"/>
</svg>
