<svg width="46" height="15" viewBox="0 0 46 15" fill="none" xmlns="http://www.w3.org/2000/svg">
<rect x="0.5" y="0.5" width="45" height="14" rx="7" stroke="#606F89"/>
<path d="M8.83807 11C10.8324 11 11.9862 9.76314 11.9862 7.71768C11.9862 5.68182 10.8324 4.45455 8.90518 4.45455H6.71911V11H8.83807ZM7.70668 10.1371V5.31747H8.84446C10.2763 5.31747 11.0146 6.17401 11.0146 7.71768C11.0146 9.26776 10.2763 10.1371 8.78374 10.1371H7.70668ZM13.6642 11H17.8063V10.1499H14.6518V8.14595H17.5538V7.29901H14.6518V5.30469H17.7679V4.45455H13.6642V11ZM24.8201 4.45455H23.8421V9.26136H23.7814L20.4511 4.45455H19.5371V11H20.5246V6.19957H20.5854L23.9124 11H24.8201V4.45455ZM27.6983 4.45455H26.7107V11H27.6983V4.45455ZM29.5865 11H33.7285V10.1499H30.5741V8.14595H33.476V7.29901H30.5741V5.30469H33.6902V4.45455H29.5865V11ZM37.5783 11C39.5726 11 40.7264 9.76314 40.7264 7.71768C40.7264 5.68182 39.5726 4.45455 37.6454 4.45455H35.4593V11H37.5783ZM36.4469 10.1371V5.31747H37.5847C39.0165 5.31747 39.7548 6.17401 39.7548 7.71768C39.7548 9.26776 39.0165 10.1371 37.524 10.1371H36.4469Z" fill="#606F89"/>
</svg>
