
<svg width="60" height="20" viewBox="0 0 60 20" fill="none" xmlns="http://www.w3.org/2000/svg">
<rect x="0.5" y="0.5" width="59" height="19" rx="9.5" stroke="#606F89"/>
<path d="M6.89631 6.72727H5.79901V14H6.89631V6.72727ZM14.8643 6.72727H13.7777V12.0682H13.7102L10.0099 6.72727H8.99432V14H10.0916V8.66619H10.1591L13.8558 14H14.8643V6.72727ZM17.5794 14L18.247 12.0753H21.0879L21.752 14H22.9167L20.2995 6.72727H19.0318L16.4146 14H17.5794ZM18.5666 11.152L19.639 8.0483H19.6958L20.7683 11.152H18.5666ZM30.1657 9.09233C29.9171 7.53693 28.699 6.62784 27.1614 6.62784C25.2793 6.62784 23.8908 8.03764 23.8908 10.3636C23.8908 12.6896 25.2722 14.0994 27.1614 14.0994C28.7594 14.0994 29.9277 13.098 30.1657 11.6598L29.0577 11.6562C28.8695 12.5866 28.0882 13.098 27.1685 13.098C25.9221 13.098 24.981 12.1428 24.981 10.3636C24.981 8.59872 25.9185 7.62926 27.1721 7.62926C28.0989 7.62926 28.8766 8.15128 29.0577 9.09233H30.1657ZM31.62 7.67188H33.8857V14H34.9794V7.67188H37.2486V6.72727H31.62V7.67188ZM40.0897 6.72727H38.9924V14H40.0897V6.72727ZM42.8233 6.72727H41.6373L44.2544 14H45.5222L48.1394 6.72727H46.9533L44.9292 12.6506H44.8475L42.8233 6.72727ZM49.6896 14H54.2919V13.0554H50.7869V10.8288H54.0114V9.88778H50.7869V7.67188H54.2493V6.72727H49.6896V14Z" fill="#606F89"/>
</svg>
