
<svg width="60" height="16" viewBox="0 0 60 16" fill="none" xmlns="http://www.w3.org/2000/svg">
<rect x="0.5" y="0.5" width="59" height="15" rx="7.5" stroke="#606F89"/>
<path d="M8.71911 11H9.70668V8.52308H11.049C11.0714 8.52308 11.0906 8.52308 11.1129 8.52308L12.4425 11H13.5675L12.1165 8.3505C12.9187 8.05327 13.3182 7.3853 13.3182 6.50639C13.3182 5.30149 12.5703 4.45455 11.0522 4.45455H8.71911V11ZM9.70668 7.67294V5.30149H10.9467C11.9215 5.30149 12.3242 5.76491 12.3242 6.50639C12.3242 7.24467 11.9215 7.67294 10.9595 7.67294H9.70668ZM14.9699 11H19.1119V10.1499H15.9575V8.14595H18.8594V7.29901H15.9575V5.30469H19.0736V4.45455H14.9699V11ZM24.4127 6.17401H25.3651C25.3363 5.12571 24.4095 4.36506 23.08 4.36506C21.7664 4.36506 20.7596 5.11612 20.7596 6.24432C20.7596 7.15518 21.4116 7.68892 22.4631 7.97337L23.2366 8.1843C23.9365 8.36967 24.4766 8.59979 24.4766 9.18146C24.4766 9.82067 23.8662 10.2425 23.0256 10.2425C22.265 10.2425 21.6322 9.90376 21.5746 9.19105H20.5839C20.6478 10.3768 21.565 11.1087 23.032 11.1087C24.5693 11.1087 25.4546 10.3001 25.4546 9.19105C25.4546 8.01172 24.4031 7.55469 23.5721 7.35014L22.9329 7.18395C22.4216 7.05291 21.7408 6.81321 21.744 6.18679C21.744 5.63068 22.2522 5.21839 23.0576 5.21839C23.8086 5.21839 24.3424 5.56996 24.4127 6.17401ZM26.7619 5.30469H28.801V11H29.7854V5.30469H31.8276V4.45455H26.7619V5.30469ZM38.8103 7.72727C38.8103 5.63388 37.5575 4.36506 35.8636 4.36506C34.1633 4.36506 32.9136 5.63388 32.9136 7.72727C32.9136 9.81747 34.1633 11.0895 35.8636 11.0895C37.5575 11.0895 38.8103 9.82067 38.8103 7.72727ZM37.8323 7.72727C37.8323 9.32209 36.9886 10.1882 35.8636 10.1882C34.7354 10.1882 33.8948 9.32209 33.8948 7.72727C33.8948 6.13246 34.7354 5.26634 35.8636 5.26634C36.9886 5.26634 37.8323 6.13246 37.8323 7.72727ZM40.4916 11H41.4791V8.52308H42.8215C42.8438 8.52308 42.863 8.52308 42.8854 8.52308L44.2149 11H45.3399L43.8889 8.3505C44.6911 8.05327 45.0906 7.3853 45.0906 6.50639C45.0906 5.30149 44.3428 4.45455 42.8247 4.45455H40.4916V11ZM41.4791 7.67294V5.30149H42.7192C43.694 5.30149 44.0967 5.76491 44.0967 6.50639C44.0967 7.24467 43.694 7.67294 42.732 7.67294H41.4791ZM46.7423 11H50.8844V10.1499H47.7299V8.14595H50.6319V7.29901H47.7299V5.30469H50.846V4.45455H46.7423V11Z" fill="#606F89"/>
</svg>
